<?xml version="1.0" standalone="no"?>
<!DOCTYPE svg PUBLIC "-//W3C//DTD SVG 20010904//EN"
 "http://www.w3.org/TR/2001/REC-SVG-20010904/DTD/svg10.dtd">
<svg version="1.0" xmlns="http://www.w3.org/2000/svg"
 width="320.000000pt" height="320.000000pt" viewBox="0 0 320.000000 320.000000"
 preserveAspectRatio="xMidYMid meet">
<metadata>
Created by potrace 1.11, written by Peter Selinger 2001-2013
</metadata>
<g transform="translate(0.000000,320.000000) scale(0.100000,-0.100000)"
fill="#000000" stroke="none">
<path d="M940 2921 c-146 -42 -276 -83 -290 -91 -13 -7 -85 -58 -160 -113 -74
-55 -160 -119 -192 -141 -110 -80 -108 -93 46 -411 109 -223 125 -263 130
-318 25 -317 147 -771 258 -960 15 -26 28 -50 28 -53 0 -5 65 -108 80 -127
133 -166 200 -234 305 -309 98 -69 180 -114 274 -148 141 -52 188 -54 311 -15
337 108 574 328 751 700 66 139 81 180 132 356 72 247 91 346 111 585 2 17 58
143 126 280 117 238 143 311 123 340 -6 9 -180 142 -295 226 -12 9 -58 44
-100 76 l-77 59 -268 67 c-147 38 -278 70 -291 72 -14 3 -42 -8 -75 -29 -105
-66 -183 -91 -292 -91 -103 0 -189 27 -281 89 -30 19 -62 35 -71 34 -10 0
-137 -35 -283 -78z"/>
</g>
</svg>
