<?xml version="1.0" encoding="UTF-8"?>
<svg width="261px" height="264px" viewBox="0 0 261 264" version="1.1" xmlns="http://www.w3.org/2000/svg" xmlns:xlink="http://www.w3.org/1999/xlink">
    <!-- Generator: Sketch 3.7.2 (28276) - http://www.bohemiancoding.com/sketch -->
    <title>logo_dh</title>
    <desc>Created with Sketch.</desc>
    <defs></defs>
    <g id="Page-1" stroke="none" stroke-width="1" fill="none" fill-rule="evenodd">
        <g id="&lt;!---Generator:-Adobe-Illustrator-19.0.0,-SVG-Export-Plug-In----&gt;--&lt;svg-version=&quot;1.1&quot;----xmlns=&quot;http://www.w3.org/2000/svg&quot;-xmlns:xlink=&quot;http://www.w3.org/1999/xlink&quot;-xmlns:a=&quot;http://ns.adobe.com/AdobeSVGViewerExtensions/3.0/&quot;----x=&quot;0px&quot;-y=&quot;0px&quot;-width=&quot;260.343px&quot;-height=&quot;264.284px&quot;-viewBox=&quot;0-0-260.343-264.284&quot;----style=&quot;enable-background:new-0-0-260.343-264.284;&quot;-xml:space=&quot;preserve&quot;&gt;--&lt;defs&gt;--&lt;/defs&gt;--&lt;g&gt;---&lt;path-style=&quot;fill:#010300;&quot;-d=&quot;M258.674,46.78c-7.207-5.555-14.705-11.151-21.958-16.564c-6.647-4.961-13.521-10.091-20.195-15.209----c-1.661-1.277-1.728-1.309-3.617-1.768l-0.258-0.062c-8.466-2.061-16.798-4.165-24.855-6.198----c-6.783-1.713-13.56-3.424-20.482-5.128c-1.342-0.329-2.351-0.629-3.162-0.868c-3.401-1.007-3.562-0.898-7.677,1.882l-0.315,0.213----C129.88,20.81,107.707,9.217,96.827,0.728c-1.041-0.81-1.345-0.879-2.334-0.527c-0.198,0.071-0.445,0.158-0.771,0.252----c-8.671,2.515-17.27,4.986-25.87,7.459c-7.008,2.014-14.016,4.028-21.065,6.066c-5.774,1.673-6.316,2.078-10.537,5.233L35.327,19.9----c-6.153,4.586-12.489,9.221-18.617,13.701c-4.559,3.334-9.137,6.682-13.727,10.071c-2.859,2.112-3.795,9.497-2.23,12.529----c3.683,7.607,7.401,15.214,11.119,22.822c3.855,7.887,7.709,15.773,11.524,23.659c2.884,35.153,9.762,58.194,15.429,74.331----c7.508,23.299,20.454,43.996,37.439,59.852c16.109,15.038,35.138,24.772,53.581,27.406l0.089,0.013l0.088-0.016----c59.4-10.621,80.48-61.577,89.482-83.335c0.517-1.25,0.995-2.406,1.459-3.51l0.911-2.958c6.611-21.45,12.857-41.711,14.281-70.488----c3.767-7.869,7.573-15.644,11.255-23.164c3.735-7.628,7.597-15.516,11.383-23.441C260.347,54.972,261.366,48.852,258.674,46.78z-----M145.255,245.961c0.933-0.48,1.815-0.932,2.684-1.437c15.304-8.922,27.058-19.473,35.931-32.254----c10.384-14.972,15.147-28.68,19.882-43.778c6.509-22.174,7.11-41.974,7.195-63.715c0.005-1.067,0.375-1.78,1.13-2.178----c0.526-0.277,1.193-0.395,1.937-0.395c2.635,0,6.224,1.478,7.834,2.57c1.113,0.752,1.417,1.625,1.204,3.462----c-3.777,32.242-10.388,58.167-20.21,79.257c-12.681,27.229-31.089,46.588-54.711,57.54l-0.691,0.32----c-1.811,0.843-3.39,1.579-5.016,2.118C143.409,246.91,144.346,246.428,145.255,245.961z-M224.548,98.338l-0.105,0.252----c-0.033,0.081-0.069,0.166-0.1,0.238c-0.085-0.031-0.187-0.074-0.283-0.112l-0.275-0.111c-0.663-0.262-1.382-0.617-2.143-0.992----c-2.144-1.056-4.575-2.257-6.974-1.988c-6.087,0.689-9.675,3.717-9.628,6.244c0.44,24.669-1.143,40.929-6.257,64.371----c-0.425,1.232-0.868,2.55-1.336,3.943c-6.645,19.777-19.012,56.591-60.304,72.084c-4.737,1.775-7.208,2.024-10.168,1.025----c-38.959-13.139-50.268-36.742-64.259-74.04c-2.995-8.526-7.014-30.504-7.908-47.156c-0.366-6.894-0.55-15.387-0.467-21.638----c0.029-2.08-3.753-4.041-7.153-4.405c-0.432-0.046-0.862-0.069-1.291-0.069c-4.262,0-8.241,2.131-10.034,3.091----c-0.117,0.063-0.236,0.127-0.343,0.183c-2.633-5.529-4.997-10.653-7.286-15.612c-3.584-7.765-6.97-15.1-11.176-23.583----c-1.613-3.115-2.907-5.831-3.189-6.681c2.772-2.143,5.569-4.296,8.363-6.447c8.64-6.652,17.574-13.53,25.432-19.867----c0.67-0.543,1.691-1.298,2.827-1.586c12.762-3.25,27.902-7.181,43.421-11.683c0.339-0.099,0.594-0.192,0.8-0.268----c0.475-0.178,0.476-0.178,1.063,0.321c18.083,15.273,42.429,15.941,63.532,1.742l0.294-0.197c3.479-2.345,3.479-2.346,6.098-1.57----c0.749,0.222,1.681,0.498,2.926,0.804c6.788,1.67,12.741,3.326,18.498,4.928c6.048,1.683,12.303,3.424,19.538,5.184l0.225,0.054----c1.544,0.377,1.544,0.377,2.957,1.46c7.626,5.849,19.431,14.356,28.917,21.192c2.733,1.97,5.277,3.802,7.476,5.395l0.313,0.221----c0.044,0.03,0.083,0.056,0.117,0.081c-0.028,0.056,0.097,0.12,0.065,0.18c-0.062,0.119-0.062,0.261-0.062,0.432v0.001----c-1,1.41-2.232,4.166-3.989,7.668C237.034,72.691,227.422,91.536,224.548,98.338z-M36.82,105.187----c1.613-1.09,5.205-2.566,7.839-2.566c0.744,0,1.412,0.118,1.936,0.395c0.754,0.399,1.121,1.11,1.125,2.176----c0.088,21.751,0.69,41.558,7.201,63.722c4.731,15.089,9.493,28.796,19.882,43.769c8.874,12.793,20.625,23.344,35.926,32.255----c0.873,0.507,1.759,0.961,2.697,1.443c0.917,0.471,1.862,0.955,2.855,1.521c-1.624-0.536-3.196-1.268-5.001-2.108l-0.738-0.343----c-23.623-10.955-42.03-30.316-54.712-57.544c-9.823-21.091-16.433-47.016-20.209-79.254----C35.406,106.815,35.708,105.94,36.82,105.187z&quot;/&gt;---&lt;g&gt;----&lt;path-style=&quot;fill-rule:evenodd;clip-rule:evenodd;fill:#FFFFFF;&quot;-d=&quot;M246.462,52.396c-1.905-1.38-4.073-2.943-6.394-4.616-----c0.015,0.308-15.317,29.314-19.12,37.237c-2.668-0.644-6.347-2.337-9.849-1.945c-6.088,0.69-11.788,6.409-11.718,10.465-----c0.418,24.087-1.473,38.888-6.319,61.096c-4.743,16.581-13.182,54.363-54.88,74.425c-8.846,4.26-12.34,3.543-21.129-1.119-----c-27.641-14.649-36.514-30.04-49.938-65.712c-2.915-8.292-6.67-29.999-7.602-47.313c-0.484-9.107,0.163-16.768-0.321-20.974-----c-0.663-5.814-5.483-9.357-10.125-10.231c-5.86-1.108-11.726,1.328-11.756,1.002c-6.781-14.222-7.284-15.543-14.302-29.692-----c-1.167-2.268-3.011-5.965-3.268-6.944c-2.196,1.691-4.39,3.381-6.566,5.064c-0.245,0.185,1.953,4.608,3.287,7.183-----c7.015,14.149,11.894,25.424,18.675,39.644c0.027,0.326,5.964-3.994,11.889-3.358c3.423,0.367,6.678,2.263,6.656,3.844-----c-0.092,6.988,0.141,15.538,0.467,21.675c0.929,17.311,5.026,39.022,7.938,47.311c13.389,35.694,24.517,60.862,64.606,74.384-----c3.146,1.062,5.773,0.755,10.541-1.032c44.371-16.649,55.312-57.083,61.971-76.367c4.847-22.202,6.754-38.391,6.287-64.562-----c-0.038-2.043,3.043-4.991,9.134-5.681c3.059-0.34,6.3,1.937,8.849,2.945c1.168,0.462,1.021,0.522,1.481-0.568-----c3.763-8.906,18.89-38.622,21.794-44.548C247.339,52.812,247.41,53.084,246.462,52.396z&quot;/&gt;---&lt;/g&gt;---&lt;g&gt;----&lt;path-style=&quot;fill-rule:evenodd;clip-rule:evenodd;fill:#BE0411;&quot;-d=&quot;M222.336,104.649c-2.988-2.027-11.745-5.018-11.769,0.462-----c-0.081,20.667-0.494,40.809-7.172,63.56c-4.703,14.994-9.395,28.608-19.806,43.619c-9.417,13.565-21.718,23.908-35.753,32.091-----c-1.793,1.04-3.703,1.891-5.836,3.13c-1.973,1.144-1.158,1.44,0.445,0.932c1.983-0.622,3.88-1.54,6.097-2.567-----c52.527-24.354,69.01-84.061,75.239-137.238C223.988,106.855,223.781,105.625,222.336,104.649z&quot;/&gt;----&lt;path-style=&quot;fill-rule:evenodd;clip-rule:evenodd;fill:#BE0411;&quot;-d=&quot;M193.342,154.97c4.847-22.207,6.738-37.009,6.319-61.096-----c-0.071-4.056,5.629-9.775,11.718-10.465c3.502-0.391,7.181,1.301,9.849,1.945c3.817-7.952,19.251-37.15,19.124-37.248-----c-9.723-7.053-19.966-14.271-30.024-21.984c-1.57-1.206-1.481-1.152-3.39-1.614c-14.111-3.431-24.21-6.651-38.139-10.079-----c-6.14-1.511-4.76-2.32-9.759,1.043c-20.477,13.774-44.621,13.57-62.71-1.706c-1.081-0.916-0.956-0.574-2.377-0.163-----c-14.44,4.189-28.997,7.971-43.559,11.679c-1.125,0.285-2.13,0.962-3.035,1.693c-10.425,8.403-15.771,12.242-27.35,21.194-----c-0.245,0.187,1.956,4.61,3.282,7.186c7.018,14.149,7.52,15.469,14.302,29.692c0.03,0.326,5.895-2.111,11.756-1.002-----c4.643,0.875,9.463,4.418,10.125,10.231c0.483,4.206-0.163,11.867,0.32,20.974c0.932,17.314,4.687,39.022,7.602,47.313-----c13.424,35.672,22.297,51.063,49.938,65.712c8.789,4.662,12.283,5.379,21.129,1.119-----C180.16,209.334,188.599,171.551,193.342,154.97z&quot;/&gt;----&lt;path-style=&quot;fill-rule:evenodd;clip-rule:evenodd;fill:#BE0411;&quot;-d=&quot;M117.027,247.924c-2.135-1.239-4.045-2.087-5.841-3.13-----c-14.035-8.175-26.337-18.523-35.748-32.091c-10.411-15.005-15.106-28.622-19.808-43.618c-6.681-22.745-7.091-42.891-7.175-63.557-----c-0.019-5.48-8.778-2.486-11.769-0.465c-1.443,0.978-1.649,2.206-1.44,3.993c6.227,53.174,22.713,112.878,75.24,137.238-----c2.217,1.027,4.108,1.945,6.094,2.57C118.182,249.364,118.997,249.07,117.027,247.924z&quot;/&gt;---&lt;/g&gt;--&lt;/g&gt;--&lt;g&gt;---&lt;path-style=&quot;fill-rule:evenodd;clip-rule:evenodd;fill:#FFFFFF;&quot;-d=&quot;M102.599,54.295c-7.368-3.586-14.38-6.102-21.822-9.68----c0.405-5.828-5.896-7.131-6.754-1.165c-2.187-0.454-4.374-0.907-6.564-1.361c-4.406-0.633-5.414,4.746-1.426,5.925l8.561,1.848----c0.647,7.987,1.831,15.084,3.711,21.756c-1.364-0.128-2.728-0.232-4.091-0.357c-2.527-0.027-3.622,6.05-0.093,6.05h6.466----c1.744,2,5.757,2.044,6.276-1.1c7.485-1.864,14.111-4.524,19.311-8.464C109.966,63.514,110.233,58.784,102.599,54.295z-----M100.653,65.415c-2.546,1.796-7.099,3.537-13.97,5.181c-1.951,0.465-1.964,0.652-2.516-0.918----c-2.32-5.436-3.488-10.875-3.523-16.317c-0.014-2.011-0.362-2.048,1.366-1.641c11.188,2.611,16.369,5.417,18.887,7.629----C103.648,61.764,103.838,63.174,100.653,65.415z&quot;/&gt;---&lt;path-style=&quot;fill-rule:evenodd;clip-rule:evenodd;fill:#FFFFFF;&quot;-d=&quot;M115.164,54.572c-0.815-2.304-4.371-2.51-4.328,0.815----c-0.258,6.564-0.522,13.122-0.78,19.686c-0.247,2.853,3.116,4.189,4.836,2.342c0.991-1.07,0.701-2.25,0.679-3.635----c-0.079-5.434-0.157-10.867-0.231-16.306C115.327,56.659,115.419,55.298,115.164,54.572z&quot;/&gt;---&lt;path-style=&quot;fill-rule:evenodd;clip-rule:evenodd;fill:#FFFFFF;&quot;-d=&quot;M112.629,49.223c1.907,0,3.456-0.981,3.456-2.187----c0-1.206-1.549-2.19-3.456-2.19c-1.913,0-3.456,0.984-3.456,2.19C109.174,48.242,110.716,49.223,112.629,49.223z&quot;/&gt;---&lt;path-style=&quot;fill-rule:evenodd;clip-rule:evenodd;fill:#FFFFFF;&quot;-d=&quot;M122.038,75.161c2.133-4.371,3.839-8.873,6.012-13.234----c1.272-2.546,1.538-2.834,2.054,0.388c0.918,4.521,1.505,9.047,2.75,13.573c0.144,0.693,0.133,1.253,0.802,1.652----c1.125,0.663,3.366,0.445,4.113-0.302c0.451-0.454,0.122-1.203,0-1.796c-1.377-6.727-2.546-12.402-4.016-19.567----c-0.715-3.48-3.388-5.029-5.977-2.182l-4.089,5.368c-0.785-1.845-4.928-1.76-4.923,0.802c-0.223,4.092-0.402,7.439-0.625,11.53----c-0.261,0.563-0.522,1.125-0.78,1.685c-0.475,1.576,0.443,1.619,0.883,2.885C119.15,77.334,121.247,76.492,122.038,75.161z&quot;/&gt;---&lt;path-style=&quot;fill-rule:evenodd;clip-rule:evenodd;fill:#FFFFFF;&quot;-d=&quot;M143.938,76.362l4.656-9.593c0.595-1.22,0.467-1.432,0.772-0.1----c1.168,5.113,2.733,8.922,5.597,10.837c2.497,0.877,3.901-0.576,3.29-2.926c-2.877-4.629-4.328-10.131-5.132-16.032----c-0.774-3.909-3.603-4.926-6.059-1.269c-1.293,2.521-2.03,4.934-3.146,7.417c-0.848,1.894-0.69,1.429-0.739-0.353----c-0.168-6.089,0.562-12.171,0.775-18.257c0.475-3.863-4.638-3.777-4.899-0.158c-0.288,9.283-1.136,19.311-0.31,29.124----C138.885,76.908,142.188,79.323,143.938,76.362z&quot;/&gt;---&lt;path-style=&quot;fill-rule:evenodd;clip-rule:evenodd;fill:#FFFFFF;&quot;-d=&quot;M196.093,68.504c-0.66-1.027-2.35-1.548-3.469-1.934----c-3.844-1.323-9.08-2.073-10.742-3.456c-0.891-0.744-0.451-1.29,0.356-1.804c1.986-1.255,5.73-0.174,6.697-1.864----c0.812-1.424,0.329-2.793-1.358-3.377c-3.249-0.595-6.672,0.323-9.536,2.268c-1.292,0.909-2.196,1.948-2.56,3.163----c-1.916-2.858-5.173-4.74-8.872-4.74c-5.896,0-10.675,4.78-10.675,10.675c0,5.894,4.779,10.674,10.675,10.674----c5.895,0,10.675-4.78,10.675-10.674c0-0.164-0.017-0.323-0.024-0.484c0.989,0.758,2.252,1.058,3.631,1.454----c1.831,0.522,4.018,0.88,5.852,1.592c1.461,0.57,4.013,1.049,1.934,1.981c-2.323,1.04-5.773,0.546-8.414-0.532----c-3.271-0.889-4.151,3.309-2.25,4.915c1.119,0.761,1.364,0.815,2.472,0.978c4.456,0.663,8.028,0.606,12.198-0.494----C196.856,75.364,197.6,70.838,196.093,68.504z-M175.307,62.919c0.024,0.567,0.156,1.169,0.402,1.808----c-0.267,0.212-0.553,0.453-0.74,0.652l-2.99-2.519c0.004-0.015,0.005-0.029,0.004-0.042c-0.021-0.41-0.687-2.409-1.098-3.024----l0.633-0.841C173.127,59.886,174.444,61.266,175.307,62.919z-M174.486,69.656l-2.997,1.185c-0.421-0.591-1.973-1.992-2.609-2.359----l0.232-3.94c0.671-0.13,2.157-0.896,2.682-1.414l2.983,2.513C174.628,66.037,174.395,68.831,174.486,69.656z-M166.608,57.628----c1.672,0,3.247,0.421,4.626,1.162l-0.598,0.794c-0.63-0.21-3.456-0.669-4.206-0.496l-2.736-1.018----C164.614,57.783,165.593,57.628,166.608,57.628z-M162.008,64.499l3.622-1.932c0.643,0.692,2.416,1.809,3.157,1.974l-0.228,3.854----c-0.698,0.092-2.935,1.395-3.393,1.908l-3.338-2.248C161.997,67.43,162.159,65.14,162.008,64.499z-M163.543,58.361l2.67,0.995----c-0.259,0.623-0.954,2.37-0.814,2.872c0.007,0.024,0.019,0.05,0.033,0.077l-3.61,1.926c-0.479-0.372-1.881-0.953-2.404-0.977----l0.889-3.024L163.543,58.361z-M159.95,60.243l0.014,0.004l-0.938,3.193c-0.631,0.597-1.621,2.469-1.826,3.082l-0.36,0.059----C157.056,64.084,158.211,61.853,159.95,60.243z-M158.912,73.507c-1.321-1.671-2.113-3.779-2.113-6.07----c0-0.175,0.005-0.35,0.014-0.523l0.371-0.061c0.161,0.703,1.203,2.293,1.612,2.719l0.809,3.778L158.912,73.507z-M159.966,73.482----l-0.82-3.824c0.598-0.15,2.04-0.913,2.505-1.33l3.4,2.289c-0.054,0.772,0.483,2.829,0.717,3.418l-3.018,1.904L159.966,73.482z-----M167.011,77.245c-1.325,0-2.34-0.266-3.34-0.744V76.25l2.726-1.974c0.657,0.308,2.649,0.494,3.33,0.506l0.88,1.737----C169.466,76.986,168.319,77.245,167.011,77.245z-M170.604,76.391l-0.765-1.703c0.548-0.503,1.679-2.875,1.754-3.54l3.011-1.191----c0.212,0.258,0.745,0.73,1.132,1.062C174.794,73.41,172.94,75.344,170.604,76.391z&quot;/&gt;---&lt;path-style=&quot;fill-rule:evenodd;clip-rule:evenodd;fill:#FFFFFF;&quot;-d=&quot;M177.534,167.932c-0.967-0.163-1.837-0.345-2.72-0.641----c-0.747-0.255-1.361-0.445-2.133-0.641c-2.206-0.563-2.836,0.522-3.934-0.503c-4.371-4.073-5.945-9.186-10.042-13.424----c-1.657-1.717-5.097-1.635-7.526-0.695c-0.815,0.31-1.668,0.511-2.527,0.695c-1.674,0.361-1.885,0.804-2.896-0.12----c-0.669-0.606-2.165-0.383-3.271-0.06c-0.717,0.212-1.021,0.304-1.771,0.304c-1.47,0-1.274-0.592-1.274-2.07----c0-0.704,0.024-1.402,0.049-2.103c0.046-1.342-0.003-1.5,0.53-2.722c0.271-0.628,0.285-1.489,0.043-2.078----c-0.201-0.492-0.31-0.497-0.38-1.008c-0.277-2.065-0.446-4.119-0.766-6.121c-0.318-1.986-0.698-1.796,0.09-3.662----c0.263-0.636,0.535-1.266,0.804-1.896c0.831-1.962,0.81-1.837,0.791-3.977c-0.038-3.939-0.076-7.873-0.12-11.81----c0.071-1.437,0.962-3.453,1.825-4.727c1.282-1.88,1.052-3.714-1.627-3.768c-0.861-0.038-2.418,0.299-3.114-0.226----c-1.948-0.926-2.605-1.502-4.551-2.426c-1.614-0.804-3.499,0.82-2.155,2.51c2.304,2.222,2.263,3.649,4.328,5.409----c0.369,0.312,1.779,1.084,1.418,2.551c-1.149,4.63-2.6,8.365-3.336,13.606c-0.245,1.706-1.089,2.353-1.497,4.062----c-0.579,2.413-0.076,3.19-0.802,5.325c-0.445,1.326-0.918,2.578-1.105,3.953c-0.182,1.361-0.079,2.478-0.264,3.79----c-0.185,1.304-0.685,2.086-1.358,3.13c-1.125,1.739-1.521,2.605-1.494,5.401c0.005,0.793,0.174,1.217-0.668,1.616----c-1.239,0.587-3.918,0.524-6.317,0.514c-2.959-0.016-2.192-0.245-0.231-1.94c0.207-0.174,0.416-0.348,0.62-0.524----c0.755-0.726,0.929-1.272,0.027-1.758c-0.255-0.13-0.502-0.261-0.755-0.394c-1.255-0.649-1.377-1.717-1.589-3.217----c-0.198-1.361-0.388-2.703-0.627-3.996c-0.478-2.597-0.674-3.374-2.13-5.456c-0.771-1.098-1.608-1.934-2.44-2.836----c-0.782-0.848-1.369-1.369-1.728-2.334c-0.28-0.75-0.473-1.885-0.408-2.662c0.011-0.163-0.12-0.394-0.239-0.492----c-0.473-0.378-0.571-0.47-1.011-0.79c-0.217-0.158-0.484-0.304-0.533,0.092c-0.049,0.435,0.049,1.173-0.016,1.679----c0.006,0.396-1.711-0.13-1.809-1.244c0.022-0.701,0.046-1.212,0.084-1.82c0.006-0.391-0.628-0.489-0.769,0.016----c-0.079,0.261-0.144,0.511-0.247,0.956c-0.079,0.103-0.383,0.092-0.394-0.06c-0.024-0.369-0.13-0.839-0.277-1.258----c-0.174-0.492-0.136-0.606-0.636-0.622c-0.638-0.024-0.364,0.212-0.543,0.766c-0.163,0.503-0.272,0.25-0.543-0.005----c-0.212-0.206-0.641-0.416-1.054-0.652c-0.565-0.315-1.176-0.103-0.663,0.454c0.986,1.149,1.587,2.013,2.75,3.013----c1.098,0.946,2.065,1.69,3.162,2.638c0.391,0.334,2.152,2.554,2.29,2.885c0.66,1.562,0.945,2.326,1.627,4.42----c0.717,2.195,0.869,4.062,1.717,6.013c0.685,1.581,0.717,1.635-0.763,2.179c-1.176,0.429-1.236,0.369-1.155,2.301----c0.049,1.108,0.282,1.016-0.658,1.622c-1.663,1.081-2.141,1.386-2.793,3.407c-0.19,0.571-1.09,0.989-1.565,0.505----c-0.093-0.098-0.973-0.75-1.35-1.72c-0.53-1.364-0.573-1.633-1.524-1.416c-1.236,0.285-1.864,0.043-2.239-0.918----c-0.538-1.407,0.006-0.934-1.603-1.312c-0.446-0.1-0.889-0.329-1.369-0.329c-0.6,0-1.201,0-1.804,0----c-0.592,0-0.462,0.06-0.722,0.592c-0.234,0.475-0.158,0.526-0.386,0.042c-0.573-1.157-0.429,1.133-0.959-0.203----c-0.286-0.75-0.155-0.656-0.889-0.737c-0.896-0.103-0.679,0.036-0.943,0.585c-0.646-0.261-0.66-0.452-0.726,0.181----c-0.108,1.117-0.03,1.103-0.413,0.054c-0.13-0.356-0.146-0.135-0.356,0.191c-0.128,0.027-0.242,0.145-0.369,0.174----c-0.312,0.071-0.312,0.334-0.312,1.052c0,0.223-0.098,0.237-0.104,0.41c-0.027,1.024-0.043,1.934-0.049,2.945----c0,0.282-1.396,0.223-1.424,0.206c-0.171,0.239-0.225,0.549-0.336,0.826c-0.239,0.587,0.049,0.315,0.32,0.522----c0.141,0.109,0.057,0.136,0.049,0.302c-0.035,0.622-0.125,1.176-0.022,1.766c0.201,1.095,0.139,1.106,0.75,1.356----c1.505,0.614,0.657,1.212,2.021,1.772c0.478,0.196,0.766,0.407,1.241,0.598c1.541,1.016,1.503,0.894,2.606,2.19----c0.445,0.527,1.021,0.891,1.467,1.413c0.755,0.519,1.434,1.157,2.26,1.543c1.345,0.63,1.356,0.649,1.144,1.473----c-0.329,1.274-0.508,2.217,0.095,3.679c0.288,1.913,0.951,2.964,1.405,4.325c0.291,0.864,1.013,1.782,0.377,2.749----c-1.157,2.375-0.043,3.298,0.538,3.945c0.418,0.467,0.179,0.739,0.323,1.337c0.804,3.336,2.22,6.395,0.378,11.047----c-1.234,2.657-2.272,4.92-3.494,7.553c-0.386,0.832,0.204,2.66,0.842,1.098c0.092-0.236,0.185-0.408,0.277-0.587----c0.223-0.437,0.168-0.522,0.337-0.157c0.076,0.163,0.166,0.299,0.25,0.44c0.196,0.334,1.079,0.625,1.087-0.174----c0.006-0.88-0.022-1.568-0.022-2.445c0-0.543,0.679-1.454,1.071-1.94c0.315-0.386,0.902-0.888,1.116,0.478----c0.043,0.266,0.046,0.557,0.09,0.837c0.06,0.386,0.916,0.391,0.932-0.052c0.063-1.823-0.008-3.649-0.003-5.474----c0.003-0.706,0.163-1.184,0.397-1.831c0.448-1.277,0.981-2.546,1.44-3.817c0.44-1.22,0.44-1.195,0.331-2.47----c-0.133-1.53-0.125-3.043-0.307-4.57c-0.052-0.408,0.062-0.473,0.296-0.63c0.638-0.429,0.75-1.057,0.943-1.972----c0.446-2.13,1.071-4.228,2.236-6.165c0.288-0.484,0.41-0.804,1.008-0.883c2.91-0.396,5.817-0.722,8.729-1.13----c0.646-0.09,1.364-0.38,2.032-0.543c1.989-0.489,4.004-1.962,5.874-3.646c0.451-0.407,0.962-1.285,1.684-1.277----c0.522,0.008,0.535,0.426,0.975,0.589c0.967,0.367,2.902,0.484,3.741,0.225c0.804-0.239,1.163-1.13,2.179-1.247----c0.271-0.03,0.554-0.014,0.837-0.003c0.57,0.022,1.068-0.114,1.521-0.511c1.052-0.902,1.994-1.875,3.016-2.804----c0.446-0.402,0.459-0.5,1.087-0.478c0.902,0.035,1.799-0.005,2.698,0.006c0.502,0,0.435,0.073,0.85-0.206----c1.568-1.038,3.133-1.923,4.7-2.917c0.69-0.44,0.709-0.629,1.516-0.629c0.304,0,0.609,0,0.913,0c0.793,0,1.073,0.031,1.231,0.455----c1.263,3.445,2.372,4.626,4.39,5.186c1.679,0.462,1.364,0.017,2.7,1.327c0.533,0.522,1.285,1.065,1.929,1.614----c0.72,0.609,0.682,0.603,0.687,1.674c0.003,0.701-0.223,1.712,0.451,2.451c1.329,1.456,2.657,0.783,3.82,0.149----c1.119-0.611,3.103-0.429,4.184,0.016c0.522,0.22,1.272,0.272,1.829,0.063c1.815-0.674,4.284-1.277,4.333-3.249----C180.311,168.692,179.686,168.285,177.534,167.932z&quot;/&gt;---&lt;path-style=&quot;fill-rule:evenodd;clip-rule:evenodd;fill:#FFFFFF;&quot;-d=&quot;M122.171,117.157c4.021,0,7.286-3.331,7.286-7.444----c0-4.108-3.266-7.441-7.286-7.441c-4.027,0-7.287,3.334-7.287,7.441C114.884,113.826,118.144,117.157,122.171,117.157z&quot;/&gt;--&lt;/g&gt;--&lt;/svg&gt;--" transform="translate(-27.000000, 0.000000)">
            <g id="logo_dh" transform="translate(27.000000, 0.000000)">
                <path d="M222.3363,104.6497 C219.3483,102.6227 210.5913,99.6317 210.5673,105.1117 C210.4853,125.7787 210.0723,145.9207 203.3943,168.6717 C198.6923,183.6657 194.0003,197.2797 183.5893,212.2907 C174.1723,225.8557 161.8703,236.1987 147.8353,244.3817 C146.0423,245.4217 144.1323,246.2727 142.0003,247.5107 C140.0273,248.6547 140.8423,248.9507 142.4453,248.4427 C144.4283,247.8207 146.3253,246.9027 148.5423,245.8757 C201.0693,221.5217 217.5523,161.8147 223.7813,108.6377 C223.9883,106.8557 223.7813,105.6257 222.3363,104.6497" id="Fill-4" fill="#DE030D"></path>
                <path d="M193.3423,154.9708 C198.1893,132.7638 200.0803,117.9618 199.6613,93.8748 C199.5913,89.8188 205.2913,84.0998 211.3793,83.4098 C214.8813,83.0188 218.5603,84.7108 221.2283,85.3548 C225.0453,77.4028 240.4793,48.2058 240.3513,48.1078 C230.6283,41.0548 220.3853,33.8358 210.3283,26.1228 C208.7583,24.9168 208.8473,24.9708 206.9373,24.5088 C192.8263,21.0778 182.7273,17.8588 168.7983,14.4298 C162.6583,12.9188 164.0383,12.1098 159.0403,15.4728 C138.5633,29.2468 114.4183,29.0438 96.3303,13.7668 C95.2493,12.8518 95.3743,13.1938 93.9533,13.6038 C79.5133,17.7928 64.9563,21.5748 50.3943,25.2838 C49.2693,25.5688 48.2643,26.2448 47.3593,26.9758 C36.9353,35.3788 31.5883,39.2178 20.0093,48.1698 C19.7653,48.3578 21.9653,52.7798 23.2913,55.3558 C30.3083,69.5048 30.8113,70.8258 37.5923,85.0478 C37.6223,85.3738 43.4883,82.9368 49.3483,84.0458 C53.9913,84.9198 58.8113,88.4628 59.4743,94.2768 C59.9573,98.4828 59.3113,106.1438 59.7943,115.2508 C60.7263,132.5648 64.4813,154.2728 67.3963,162.5648 C80.8203,198.2358 89.6933,213.6268 117.3343,228.2758 C126.1223,232.9378 129.6163,233.6548 138.4623,229.3958 C180.1603,209.3338 188.5993,171.5518 193.3423,154.9708" id="Fill-6" fill="#DE030D"></path>
                <path d="M117.0269,247.924 C114.8919,246.685 112.9819,245.837 111.1859,244.794 C97.1509,236.619 84.8489,226.271 75.4379,212.703 C65.0269,197.698 60.3319,184.082 55.6299,169.085 C48.9489,146.339 48.5389,126.194 48.4549,105.528 C48.4349,100.048 39.6769,103.041 36.6849,105.063 C35.2429,106.041 35.0359,107.269 35.2449,109.056 C41.4719,162.23 57.9579,221.935 110.4849,246.294 C112.7019,247.321 114.5929,248.239 116.5789,248.864 C118.1819,249.364 118.9969,249.07 117.0269,247.924" id="Fill-8" fill="#DE030D"></path>
                <path d="M100.6535,65.4158 C98.1075,67.2118 93.5545,68.9528 86.6835,70.5968 C84.7325,71.0618 84.7195,71.2488 84.1675,69.6788 C81.8475,64.2418 80.6795,58.8028 80.6445,53.3608 C80.6305,51.3508 80.2825,51.3128 82.0105,51.7198 C93.1985,54.3308 98.3795,57.1378 100.8985,59.3488 C103.6475,61.7648 103.8375,63.1748 100.6535,65.4158 M102.5985,54.2958 C95.2305,50.7098 88.2185,48.1938 80.7775,44.6158 C81.1825,38.7878 74.8815,37.4838 74.0235,43.4508 C71.8365,42.9968 69.6495,42.5428 67.4595,42.0888 C63.0525,41.4558 62.0445,46.8358 66.0335,48.0148 L74.5935,49.8618 C75.2405,57.8498 76.4245,64.9458 78.3045,71.6188 C76.9415,71.4908 75.5775,71.3868 74.2135,71.2618 C71.6865,71.2338 70.5915,77.3108 74.1215,77.3108 L80.5875,77.3108 C82.3315,79.3108 86.3435,79.3548 86.8625,76.2118 C94.3475,74.3478 100.9745,71.6868 106.1745,67.7478 C109.9665,63.5148 110.2325,58.7838 102.5985,54.2958" id="Fill-10" fill="#FFFFFF"></path>
                <path d="M115.164,54.5729 C114.349,52.2689 110.793,52.0629 110.836,55.3879 C110.578,61.9519 110.314,68.5099 110.056,75.0739 C109.809,77.9269 113.173,79.2629 114.893,77.4159 C115.884,76.3459 115.593,75.1669 115.571,73.7809 C115.493,68.3469 115.414,62.9139 115.341,57.4749 C115.327,56.6589 115.419,55.2989 115.164,54.5729" id="Fill-12" fill="#FFFFFF"></path>
                <path d="M112.6293,49.2236 C114.5363,49.2236 116.0853,48.2426 116.0853,47.0366 C116.0853,45.8306 114.5363,44.8466 112.6293,44.8466 C110.7163,44.8466 109.1733,45.8306 109.1733,47.0366 C109.1733,48.2426 110.7163,49.2236 112.6293,49.2236" id="Fill-14" fill="#FFFFFF"></path>
                <path d="M122.0375,75.161 C124.1705,70.79 125.8765,66.288 128.0495,61.927 C129.3215,59.382 129.5875,59.094 130.1035,62.316 C131.0225,66.837 131.6085,71.363 132.8535,75.889 C132.9975,76.582 132.9865,77.142 133.6545,77.541 C134.7795,78.204 137.0205,77.986 137.7675,77.239 C138.2185,76.786 137.8905,76.036 137.7675,75.444 C136.3905,68.717 135.2225,63.041 133.7525,55.877 C133.0375,52.397 130.3645,50.848 127.7755,53.695 L123.6865,59.064 C122.9015,57.219 118.7585,57.303 118.7635,59.865 C118.5415,63.957 118.3615,67.304 118.1385,71.395 C117.8785,71.958 117.6175,72.52 117.3595,73.08 C116.8835,74.656 117.8025,74.699 118.2425,75.965 C119.1495,77.335 121.2465,76.492 122.0375,75.161" id="Fill-16" fill="#FFFFFF"></path>
                <path d="M143.9379,76.362 L148.5939,66.769 C149.1899,65.549 149.0619,65.337 149.3659,66.668 C150.5339,71.781 152.0989,75.59 154.9629,77.506 C157.4589,78.383 158.8639,76.93 158.2529,74.58 C155.3759,69.95 153.9249,64.449 153.1209,58.548 C152.3459,54.638 149.5179,53.622 147.0619,57.279 C145.7689,59.8 145.0329,62.213 143.9159,64.696 C143.0689,66.59 143.2259,66.125 143.1769,64.343 C143.0089,58.254 143.7399,52.171 143.9519,46.086 C144.4269,42.222 139.3139,42.309 139.0529,45.928 C138.7649,55.211 137.9169,65.239 138.7429,75.052 C138.8849,76.908 142.1879,79.323 143.9379,76.362" id="Fill-18" fill="#FFFFFF"></path>
                <path d="M170.6037,76.391 L169.8387,74.688 C170.3867,74.185 171.5177,71.813 171.5927,71.148 L174.6037,69.958 C174.8157,70.216 175.3487,70.688 175.7357,71.02 C174.7937,73.411 172.9397,75.344 170.6037,76.391 L170.6037,76.391 Z M167.0117,77.245 C165.6867,77.245 164.6717,76.98 163.6717,76.501 L163.6717,76.251 L166.3977,74.277 C167.0547,74.584 169.0467,74.771 169.7277,74.783 L170.6077,76.519 C169.4657,76.986 168.3187,77.245 167.0117,77.245 L167.0117,77.245 Z M159.9667,73.482 L159.1457,69.658 C159.7437,69.508 161.1867,68.745 161.6517,68.328 L165.0517,70.616 C164.9977,71.388 165.5347,73.446 165.7687,74.035 L162.7507,75.939 L159.9667,73.482 Z M158.9117,73.507 C157.5907,71.836 156.7997,69.728 156.7997,67.437 C156.7997,67.262 156.8047,67.088 156.8137,66.915 L157.1847,66.854 C157.3457,67.557 158.3867,69.147 158.7967,69.573 L159.6057,73.351 L158.9117,73.507 Z M159.9497,60.243 L159.9637,60.247 L159.0257,63.441 C158.3947,64.038 157.4047,65.91 157.1987,66.522 L156.8387,66.581 C157.0557,64.085 158.2107,61.854 159.9497,60.243 L159.9497,60.243 Z M163.5427,58.361 L166.2137,59.356 C165.9537,59.979 165.2587,61.726 165.3987,62.227 C165.4057,62.251 165.4177,62.278 165.4317,62.305 L161.8227,64.23 C161.3437,63.858 159.9417,63.278 159.4187,63.254 L160.3077,60.23 L163.5427,58.361 Z M162.0077,64.499 L165.6297,62.567 C166.2737,63.26 168.0467,64.377 168.7877,64.541 L168.5597,68.395 C167.8617,68.488 165.6247,69.791 165.1667,70.303 L161.8287,68.056 C161.9967,67.431 162.1587,65.141 162.0077,64.499 L162.0077,64.499 Z M166.6077,57.629 C168.2797,57.629 169.8547,58.05 171.2337,58.791 L170.6357,59.585 C170.0047,59.376 167.1787,58.916 166.4297,59.089 L163.6927,58.071 C164.6147,57.784 165.5937,57.629 166.6077,57.629 L166.6077,57.629 Z M174.4857,69.656 L171.4887,70.841 C171.0687,70.251 169.5167,68.849 168.8797,68.482 L169.1127,64.542 C169.7837,64.411 171.2697,63.646 171.7947,63.128 L174.7777,65.641 C174.6277,66.037 174.3947,68.832 174.4857,69.656 L174.4857,69.656 Z M175.3067,62.919 C175.3317,63.486 175.4627,64.088 175.7087,64.727 C175.4417,64.939 175.1557,65.18 174.9687,65.378 L171.9797,62.86 C171.9837,62.845 171.9847,62.831 171.9837,62.817 C171.9627,62.408 171.2977,60.409 170.8857,59.793 L171.5187,58.952 C173.1267,59.887 174.4447,61.266 175.3067,62.919 L175.3067,62.919 Z M196.0927,68.505 C195.4327,67.478 193.7427,66.956 192.6237,66.57 C188.7787,65.247 183.5437,64.497 181.8807,63.115 C180.9897,62.37 181.4297,61.824 182.2367,61.311 C184.2227,60.055 187.9667,61.137 188.9337,59.447 C189.7467,58.023 189.2627,56.654 187.5757,56.07 C184.3257,55.475 180.9027,56.393 178.0397,58.338 C176.7467,59.247 175.8437,60.286 175.4797,61.502 C173.5637,58.644 170.3067,56.762 166.6077,56.762 C160.7117,56.762 155.9327,61.542 155.9327,67.437 C155.9327,73.332 160.7117,78.111 166.6077,78.111 C172.5027,78.111 177.2827,73.332 177.2827,67.437 C177.2827,67.274 177.2657,67.115 177.2577,66.953 C178.2467,67.711 179.5107,68.011 180.8897,68.407 C182.7207,68.929 184.9077,69.287 186.7417,69.999 C188.2027,70.569 190.7537,71.048 188.6757,71.98 C186.3527,73.02 182.9027,72.526 180.2617,71.447 C176.9907,70.559 176.1107,74.756 178.0117,76.362 C179.1317,77.123 179.3757,77.177 180.4847,77.34 C184.9397,78.003 188.5127,77.946 192.6827,76.845 C196.8557,75.365 197.6007,70.839 196.0927,68.505 L196.0927,68.505 Z" id="Fill-20" fill="#FFFFFF"></path>
                <path d="M177.5341,167.9323 C176.5671,167.7693 175.6971,167.5873 174.8141,167.2913 C174.0671,167.0353 173.4531,166.8453 172.6821,166.6503 C170.4751,166.0873 169.8451,167.1713 168.7481,166.1473 C164.3771,162.0743 162.8031,156.9613 158.7061,152.7233 C157.0491,151.0063 153.6091,151.0883 151.1811,152.0283 C150.3661,152.3373 149.5131,152.5393 148.6541,152.7233 C146.9811,153.0853 146.7691,153.5283 145.7581,152.6043 C145.0891,151.9983 143.5931,152.2213 142.4871,152.5443 C141.7701,152.7563 141.4651,152.8483 140.7161,152.8483 C139.2461,152.8483 139.4411,152.2563 139.4411,150.7783 C139.4411,150.0743 139.4661,149.3763 139.4901,148.6753 C139.5371,147.3333 139.4881,147.1763 140.0201,145.9533 C140.2921,145.3253 140.3051,144.4643 140.0641,143.8743 C139.8621,143.3833 139.7541,143.3773 139.6831,142.8673 C139.4061,140.8023 139.2381,138.7483 138.9171,136.7453 C138.5991,134.7603 138.2191,134.9503 139.0071,133.0833 C139.2701,132.4483 139.5421,131.8173 139.8111,131.1873 C140.6421,129.2253 140.6201,129.3503 140.6021,127.2103 C140.5641,123.2703 140.5251,119.3363 140.4821,115.4003 C140.5531,113.9623 141.4441,111.9473 142.3071,110.6723 C143.5901,108.7923 143.3591,106.9583 140.6801,106.9043 C139.8191,106.8663 138.2621,107.2033 137.5671,106.6793 C135.6191,105.7523 134.9611,105.1763 133.0161,104.2533 C131.4021,103.4483 129.5171,105.0733 130.8621,106.7633 C133.1661,108.9853 133.1251,110.4113 135.1901,112.1723 C135.5591,112.4843 136.9691,113.2563 136.6081,114.7233 C135.4591,119.3533 134.0081,123.0883 133.2721,128.3293 C133.0271,130.0353 132.1821,130.6823 131.7741,132.3913 C131.1961,134.8033 131.6991,135.5803 130.9731,137.7163 C130.5281,139.0413 130.0551,140.2943 129.8671,141.6693 C129.6851,143.0303 129.7881,144.1463 129.6041,145.4593 C129.4191,146.7623 128.9191,147.5453 128.2451,148.5883 C127.1211,150.3273 126.7241,151.1943 126.7511,153.9893 C126.7561,154.7823 126.9251,155.2063 126.0831,155.6063 C124.8441,156.1933 122.1651,156.1303 119.7661,156.1193 C116.8071,156.1033 117.5741,155.8753 119.5351,154.1793 C119.7421,154.0053 119.9511,153.8323 120.1551,153.6553 C120.9101,152.9303 121.0841,152.3843 120.1821,151.8973 C119.9261,151.7673 119.6791,151.6373 119.4261,151.5033 C118.1711,150.8543 118.0491,149.7863 117.8371,148.2873 C117.6391,146.9253 117.4491,145.5833 117.2101,144.2903 C116.7321,141.6933 116.5361,140.9163 115.0801,138.8353 C114.3081,137.7373 113.4711,136.9003 112.6401,135.9993 C111.8571,135.1513 111.2711,134.6293 110.9121,133.6653 C110.6321,132.9153 110.4401,131.7793 110.5041,131.0023 C110.5151,130.8393 110.3851,130.6083 110.2661,130.5103 C109.7931,130.1333 109.6951,130.0413 109.2551,129.7203 C109.0381,129.5623 108.7711,129.4163 108.7221,129.8123 C108.6731,130.2473 108.7711,130.9863 108.7061,131.4913 C108.7111,131.8883 106.9941,131.3613 106.8971,130.2473 C106.9181,129.5463 106.9431,129.0353 106.9811,128.4273 C106.9861,128.0363 106.3531,127.9383 106.2121,128.4433 C106.1331,128.7043 106.0681,128.9543 105.9651,129.3993 C105.8861,129.5023 105.5821,129.4923 105.5711,129.3393 C105.5461,128.9703 105.4401,128.5003 105.2941,128.0823 C105.1201,127.5903 105.1581,127.4763 104.6581,127.4603 C104.0191,127.4353 104.2941,127.6713 104.1151,128.2263 C103.9511,128.7283 103.8431,128.4763 103.5711,128.2203 C103.3591,128.0143 102.9301,127.8053 102.5171,127.5683 C101.9521,127.2533 101.3411,127.4653 101.8541,128.0223 C102.8401,129.1713 103.4411,130.0353 104.6041,131.0353 C105.7011,131.9803 106.6691,132.7253 107.7661,133.6733 C108.1571,134.0073 109.9181,136.2273 110.0561,136.5583 C110.7161,138.1203 111.0021,138.8843 111.6841,140.9783 C112.4011,143.1743 112.5531,145.0403 113.4011,146.9913 C114.0851,148.5723 114.1181,148.6263 112.6371,149.1703 C111.4611,149.5993 111.4011,149.5393 111.4831,151.4713 C111.5311,152.5793 111.7651,152.4873 110.8251,153.0933 C109.1621,154.1743 108.6841,154.4783 108.0321,156.5003 C107.8421,157.0703 106.9431,157.4893 106.4671,157.0053 C106.3751,156.9073 105.4951,156.2553 105.1171,155.2853 C104.5871,153.9213 104.5441,153.6523 103.5931,153.8703 C102.3571,154.1553 101.7291,153.9133 101.3541,152.9513 C100.8161,151.5443 101.3601,152.0173 99.7521,151.6393 C99.3061,151.5393 98.8631,151.3113 98.3821,151.3113 L96.5781,151.3113 C95.9861,151.3113 96.1161,151.3703 95.8561,151.9033 C95.6221,152.3783 95.6981,152.4283 95.4701,151.9453 C94.8971,150.7883 95.0401,153.0783 94.5111,151.7423 C94.2251,150.9923 94.3561,151.0863 93.6221,151.0053 C92.7261,150.9013 92.9431,151.0413 92.6801,151.5893 C92.0331,151.3293 92.0191,151.1373 91.9541,151.7713 C91.8461,152.8873 91.9241,152.8733 91.5411,151.8243 C91.4111,151.4693 91.3951,151.6903 91.1851,152.0163 C91.0581,152.0433 90.9431,152.1603 90.8161,152.1903 C90.5031,152.2613 90.5031,152.5253 90.5031,153.2423 C90.5031,153.4653 90.4061,153.4783 90.4001,153.6523 C90.3731,154.6773 90.3571,155.5873 90.3511,156.5973 C90.3511,156.8803 88.9551,156.8203 88.9271,156.8043 C88.7561,157.0433 88.7021,157.3533 88.5911,157.6303 C88.3521,158.2173 88.6391,157.9453 88.9111,158.1513 C89.0531,158.2603 88.9681,158.2873 88.9601,158.4533 C88.9251,159.0753 88.8351,159.6293 88.9391,160.2193 C89.1391,161.3143 89.0771,161.3253 89.6881,161.5753 C91.1931,162.1893 90.3461,162.7863 91.7101,163.3463 C92.1881,163.5423 92.4761,163.7533 92.9511,163.9443 C94.4921,164.9603 94.4541,164.8383 95.5571,166.1333 C96.0021,166.6613 96.5781,167.0243 97.0241,167.5463 C97.7791,168.0653 98.4581,168.7033 99.2841,169.0893 C100.6291,169.7203 100.6401,169.7393 100.4281,170.5623 C100.0991,171.8363 99.9201,172.7793 100.5231,174.2413 C100.8111,176.1533 101.4741,177.2043 101.9281,178.5663 C102.2181,179.4303 102.9411,180.3483 102.3051,181.3153 C101.1481,183.6903 102.2621,184.6133 102.8431,185.2603 C103.2621,185.7273 103.0231,185.9993 103.1661,186.5973 C103.9711,189.9333 105.3861,192.9923 103.5441,197.6433 C102.3111,200.3003 101.2731,202.5633 100.0501,205.1963 C99.6641,206.0273 100.2541,207.8563 100.8921,206.2943 C100.9851,206.0573 101.0771,205.8863 101.1691,205.7073 C101.3921,205.2693 101.3381,205.1853 101.5061,205.5493 C101.5831,205.7123 101.6721,205.8483 101.7561,205.9893 C101.9521,206.3233 102.8351,206.6143 102.8431,205.8153 C102.8491,204.9353 102.8211,204.2483 102.8211,203.3703 C102.8211,202.8273 103.5011,201.9173 103.8921,201.4303 C104.2071,201.0443 104.7941,200.5423 105.0081,201.9093 C105.0521,202.1753 105.0551,202.4663 105.0981,202.7453 C105.1581,203.1313 106.0131,203.1373 106.0301,202.6943 C106.0931,200.8713 106.0221,199.0453 106.0271,197.2193 C106.0301,196.5133 106.1901,196.0353 106.4241,195.3883 C106.8721,194.1113 107.4051,192.8433 107.8641,191.5713 C108.3041,190.3513 108.3041,190.3763 108.1951,189.1013 C108.0621,187.5723 108.0701,186.0593 107.8881,184.5323 C107.8361,184.1243 107.9511,184.0593 108.1841,183.9013 C108.8231,183.4723 108.9341,182.8453 109.1271,181.9293 C109.5731,179.7993 110.1981,177.7023 111.3631,175.7653 C111.6511,175.2813 111.7741,174.9613 112.3711,174.8813 C115.2811,174.4853 118.1881,174.1593 121.1001,173.7513 C121.7471,173.6623 122.4641,173.3713 123.1321,173.2083 C125.1211,172.7193 127.1371,171.2473 129.0061,169.5623 C129.4571,169.1553 129.9681,168.2773 130.6901,168.2853 C131.2121,168.2933 131.2261,168.7123 131.6661,168.8753 C132.6331,169.2423 134.5671,169.3583 135.4071,169.1003 C136.2111,168.8613 136.5701,167.9703 137.5861,167.8533 C137.8571,167.8233 138.1401,167.8403 138.4231,167.8503 C138.9931,167.8723 139.4901,167.7363 139.9441,167.3403 C140.9951,166.4383 141.9381,165.4653 142.9601,164.5363 C143.4051,164.1343 143.4191,164.0363 144.0461,164.0583 C144.9491,164.0933 145.8451,164.0523 146.7441,164.0633 C147.2471,164.0633 147.1791,164.1363 147.5951,163.8573 C149.1621,162.8193 150.7271,161.9343 152.2951,160.9403 C152.9851,160.5003 153.0041,160.3113 153.8111,160.3113 L154.7231,160.3113 C155.5171,160.3113 155.7971,160.3423 155.9541,160.7663 C157.2171,164.2113 158.3261,165.3923 160.3451,165.9523 C162.0241,166.4143 161.7091,165.9693 163.0451,167.2793 C163.5781,167.8003 164.3301,168.3443 164.9741,168.8933 C165.6941,169.5023 165.6561,169.4973 165.6611,170.5673 C165.6641,171.2683 165.4391,172.2793 166.1121,173.0183 C167.4411,174.4743 168.7701,173.8003 169.9321,173.1673 C171.0521,172.5563 173.0351,172.7383 174.1161,173.1843 C174.6381,173.4043 175.3881,173.4553 175.9451,173.2463 C177.7591,172.5723 180.2291,171.9693 180.2781,169.9973 C180.3111,168.6933 179.6861,168.2853 177.5341,167.9323" id="Fill-22" fill="#FFFFFF"></path>
                <path d="M122.1708,117.1576 C126.1918,117.1576 129.4568,113.8266 129.4568,109.7136 C129.4568,105.6056 126.1918,102.2726 122.1708,102.2726 C118.1438,102.2726 114.8838,105.6056 114.8838,109.7136 C114.8838,113.8266 118.1438,117.1576 122.1708,117.1576" id="Fill-24" fill="#FFFFFF"></path>
                <path d="M36.82,105.1871 C38.433,104.0971 42.025,102.6211 44.659,102.6211 C45.403,102.6211 46.071,102.7391 46.596,103.0161 C47.349,103.4151 47.717,104.1261 47.721,105.1921 C47.809,126.9431 48.411,146.7501 54.922,168.9141 C59.653,184.0021 64.415,197.7101 74.804,212.6831 C83.677,225.4761 95.428,236.0271 110.729,244.9381 C111.602,245.4451 112.488,245.8991 113.426,246.3811 C114.343,246.8521 115.288,247.3361 116.281,247.9021 C114.657,247.3661 113.085,246.6341 111.28,245.7951 L110.542,245.4521 C86.919,234.4971 68.512,215.1361 55.83,187.9081 C46.007,166.8171 39.397,140.8921 35.622,108.6541 C35.406,106.8151 35.708,105.9411 36.82,105.1871 M224.548,98.3391 L224.443,98.5911 C224.41,98.6711 224.375,98.7571 224.343,98.8281 C224.259,98.7971 224.157,98.7551 224.06,98.7171 L223.785,98.6061 C223.122,98.3441 222.403,97.9891 221.643,97.6131 C219.499,96.5571 217.068,95.3561 214.669,95.6251 C208.582,96.3151 204.994,99.3421 205.041,101.8691 C205.481,126.5391 203.898,142.7981 198.784,166.2411 C198.359,167.4731 197.916,168.7911 197.448,170.1841 C190.804,189.9611 178.436,226.7751 137.145,242.2681 C132.407,244.0441 129.936,244.2921 126.977,243.2931 C88.018,230.1541 76.709,206.5511 62.718,169.2531 C59.723,160.7271 55.704,138.7491 54.811,122.0971 C54.444,115.2041 54.261,106.7101 54.344,100.4601 C54.372,98.3801 50.59,96.4181 47.191,96.0551 C46.758,96.0081 46.328,95.9861 45.9,95.9861 C41.638,95.9861 37.659,98.1171 35.866,99.0771 C35.749,99.1411 35.63,99.2041 35.523,99.2611 C32.891,93.7311 30.526,88.6081 28.237,83.6491 C24.653,75.8841 21.267,68.5491 17.061,60.0661 C15.448,56.9501 14.154,54.2351 13.871,53.3851 C16.643,51.2421 19.44,49.0881 22.234,46.9371 C30.874,40.2861 39.808,33.4071 47.667,27.0711 C48.336,26.5281 49.358,25.7731 50.493,25.4851 C63.256,22.2351 78.395,18.3041 93.915,13.8021 C94.254,13.7031 94.509,13.6091 94.714,13.5341 C95.19,13.3551 95.19,13.3551 95.778,13.8551 C113.861,29.1281 138.207,29.7961 159.31,15.5971 L159.603,15.3991 C163.082,13.0551 163.082,13.0541 165.701,13.8301 C166.45,14.0511 167.382,14.3271 168.627,14.6341 C175.416,16.3041 181.368,17.9601 187.125,19.5621 C193.173,21.2441 199.428,22.9851 206.663,24.7451 L206.888,24.8001 C208.432,25.1771 208.432,25.1771 209.845,26.2601 C217.471,32.1081 229.276,40.6161 238.762,47.4521 C241.495,49.4221 244.039,51.2551 246.238,52.8481 L246.551,53.0681 C246.595,53.0981 246.634,53.1251 246.668,53.1491 C246.64,53.2051 246.765,53.2691 246.734,53.3291 C246.672,53.4481 246.672,53.5901 246.672,53.7611 L246.672,53.7621 C245.672,55.1721 244.44,57.9291 242.683,61.4311 C237.034,72.6911 227.422,91.5361 224.548,98.3391 M145.255,245.9611 C146.188,245.4811 147.07,245.0291 147.939,244.5241 C163.244,235.6021 174.997,225.0511 183.87,212.2701 C194.254,197.2981 199.017,183.5891 203.751,168.4911 C210.26,146.3181 210.861,126.5181 210.947,104.7771 C210.951,103.7101 211.322,102.9971 212.077,102.5991 C212.603,102.3221 213.271,102.2041 214.014,102.2041 C216.649,102.2041 220.238,103.6821 221.848,104.7741 C222.961,105.5261 223.265,106.3991 223.051,108.2361 C219.275,140.4781 212.664,166.4031 202.842,187.4931 C190.161,214.7211 171.753,234.0811 148.131,245.0331 L147.44,245.3531 C145.629,246.1971 144.049,246.9321 142.424,247.4711 C143.409,246.9101 144.346,246.4281 145.255,245.9611 M258.674,46.7801 C251.467,41.2261 243.968,35.6291 236.716,30.2161 C230.069,25.2551 223.195,20.1251 216.521,15.0081 C214.861,13.7311 214.793,13.6991 212.904,13.2391 L212.646,13.1771 C204.18,11.1151 195.848,9.0121 187.791,6.9791 C181.008,5.2661 174.231,3.5551 167.309,1.8501 C165.968,1.5211 164.958,1.2211 164.147,0.9821 C160.746,-0.0249 160.585,0.0841 156.47,2.8641 L156.155,3.0761 C129.88,20.8101 107.707,9.2171 96.827,0.7291 C95.786,-0.0809 95.482,-0.1499 94.492,0.2021 C94.294,0.2721 94.048,0.3601 93.722,0.4541 C85.051,2.9691 76.451,5.4401 67.851,7.9121 C60.843,9.9271 53.835,11.9411 46.786,13.9791 C41.012,15.6511 40.47,16.0561 36.249,19.2121 L35.327,19.9001 C29.175,24.4861 22.838,29.1211 16.71,33.6021 C12.151,36.9361 7.573,40.2841 2.983,43.6731 C0.125,45.7851 -0.812,53.1701 0.753,56.2021 C4.436,63.8091 8.154,71.4151 11.872,79.0231 C15.727,86.9101 19.582,94.7961 23.396,102.6821 C26.28,137.8351 33.158,160.8761 38.825,177.0131 C46.334,200.3121 59.279,221.0091 76.264,236.8651 C92.373,251.9031 111.402,261.6371 129.845,264.2711 L129.933,264.2841 L130.022,264.2681 C189.422,253.6461 210.502,202.6911 219.504,180.9321 C220.021,179.6821 220.499,178.5271 220.963,177.4221 L221.875,174.4641 C228.486,153.0141 234.731,132.7531 236.155,103.9761 C239.922,96.1071 243.728,88.3321 247.41,80.8121 C251.145,73.1841 255.007,65.2961 258.793,57.3701 C260.347,54.9721 261.366,48.8531 258.674,46.7801" id="Fill-1" fill="#000200"></path>
                <path d="M246.304,52.6158 C244.399,51.2358 242.231,49.6728 239.91,47.9998 C239.925,48.3078 224.593,77.3138 220.79,85.2368 C218.122,84.5928 214.444,82.8998 210.942,83.2918 C204.853,83.9818 199.153,89.7008 199.224,93.7568 C199.643,117.8438 197.752,132.6448 192.905,154.8528 C188.161,171.4328 179.723,209.2158 138.025,229.2768 C129.179,233.5368 125.685,232.8198 116.896,228.1578 C89.255,213.5088 80.382,198.1178 66.959,162.4458 C64.043,154.1548 60.289,132.4468 59.357,115.1328 C58.873,106.0258 59.52,98.3638 59.036,94.1588 C58.373,88.3448 53.554,84.8018 48.911,83.9268 C43.051,82.8188 37.185,85.2558 37.155,84.9298 C30.374,70.7068 29.871,69.3868 22.854,55.2378 C21.686,52.9698 19.842,49.2728 19.585,48.2928 C17.39,49.9838 15.196,51.6738 13.019,53.3578 C12.774,53.5418 14.972,57.9658 16.306,60.5408 C23.321,74.6898 28.2,85.9648 34.981,100.1848 C35.009,100.5108 40.945,96.1908 46.87,96.8268 C50.293,97.1928 53.548,99.0898 53.526,100.6708 C53.434,107.6588 53.668,116.2088 53.994,122.3458 C54.923,139.6568 59.02,161.3678 61.932,169.6568 C75.321,205.3498 86.449,230.5188 126.538,244.0398 C129.684,245.1028 132.312,244.7958 137.08,243.0078 C181.451,226.3588 192.391,185.9248 199.05,166.6408 C203.897,144.4388 205.804,128.2488 205.337,102.0778 C205.299,100.0348 208.38,97.0878 214.471,96.3968 C217.53,96.0578 220.771,98.3348 223.32,99.3428 C224.488,99.8038 224.341,99.8638 224.8,98.7748 C228.563,89.8688 243.69,60.1518 246.595,54.2268 C247.181,53.0318 247.252,53.3028 246.304,52.6158" id="Fill-1" fill="#FFFFFF"></path>
            </g>
        </g>
    </g>
</svg>